<svg xmlns="http://www.w3.org/2000/svg" viewBox="0 0 548.44 187.08"><defs><style>.cls-1{fill:#f1f2f6;}.cls-2{fill:#fff;}</style></defs><g id="Layer_2" data-name="Layer 2"><g id="Layer_1-2" data-name="Layer 1"><polygon class="cls-1" points="65.65 47.9 54.14 68.55 52.62 83.18 64.82 62.03 65.65 47.9"/><path class="cls-2" d="M87.55,102.51,95,88.79a2.09,2.09,0,0,1,3.67,2l-7.21,13.45L125,115.34l13.1-25.09L105.16,78.53l-3.54,6.59a2,2,0,0,1-1.8,1.11,2.24,2.24,0,0,1-1-.28A2.12,2.12,0,0,1,98,83.11l3.25-6L67.8,65.15,52.55,91.35l34.86,11.51C87.48,102.79,87.48,102.65,87.55,102.51Z"/><polygon class="cls-1" points="67.52 15.53 58.79 32.78 58.3 37.36 67.17 21.56 67.52 15.53"/><polygon class="cls-1" points="66.62 31.05 56.01 50.04 55.18 58.15 66.2 38.4 66.62 31.05"/><polygon class="cls-2" points="139.74 124.49 132.12 121.99 112.99 120.33 101.76 142.16 129.42 143.06 139.74 124.49"/><polygon class="cls-2" points="59.27 97.94 50.26 115.06 62.04 138.42 74.73 115.06 66.48 100.37 59.27 97.94"/><polygon class="cls-1" points="117.98 146.88 114.38 146.74 115.55 147.71 117.98 146.88"/><polygon class="cls-2" points="114.86 116.31 72.37 102.24 78.4 113.05 114.86 116.31"/><polygon class="cls-2" points="102.25 53.79 70.15 42 69.04 61.2 102.25 72.99 102.25 53.79"/><polygon class="cls-2" points="138.01 48.52 106.4 37.01 106.4 50.88 138.43 62.59 138.01 48.52"/><path class="cls-2" d="M147.3,47.55a2,2,0,0,1,1.25,2.63,2.09,2.09,0,0,1-1.94,1.39,2.49,2.49,0,0,1-.7-.14L142.1,50l.42,14.07L169.62,74,168,59.4l-16.22-5.89A2,2,0,0,1,150.42,51a2,2,0,0,1,2.63-1.25l14.28,5.2-1.66-14.14-24-8.67L142,45.61Z"/><polygon class="cls-2" points="102.25 35.49 71.19 24.19 70.43 37.71 102.25 49.35 102.25 35.49"/><polygon class="cls-2" points="138.5 67.09 106.4 55.31 106.4 74.51 138.98 86.09 138.5 67.09"/><polygon class="cls-2" points="102.25 17.88 72.23 7.07 71.47 19.82 102.25 31.05 102.25 17.88"/><polygon class="cls-2" points="137.53 30.5 106.4 19.34 106.4 32.58 137.87 44.01 137.53 30.5"/><path class="cls-2" d="M130.66,147.36l-2.21-.07a2,2,0,0,1-1.11.9l-10.75,3.61-5,9.42a2.17,2.17,0,0,1-1.87,1.11,2.19,2.19,0,0,1-1-.21,2.09,2.09,0,0,1-.9-2.84l2.91-5.61-19.89,6.72L81.45,178.9l19.89-7.28,3.47-6.59a2.1,2.1,0,0,1,2.84-.9,2.34,2.34,0,0,1,1,2.91l-1.32,2.5,19.27-7.07,8-15Z"/><polygon class="cls-1" points="167.05 119.77 168.3 119.84 167.68 118.73 167.05 119.77"/><polygon class="cls-2" points="132.4 160.25 144.6 155.82 148.75 147.98 139.19 147.64 132.4 160.25"/><path class="cls-2" d="M160.88,129.89a2.14,2.14,0,0,1-1.8,1,2,2,0,0,1-.62-.14l-14.7-4.85-9.7,17.4,22.73.83,11.79-20-4-.21Z"/><polygon class="cls-2" points="142.72 68.62 143.21 87.61 172.46 98.01 170.24 78.74 142.72 68.62"/><polygon class="cls-2" points="108.55 119.91 78.33 117.21 65.44 140.91 97.19 142.02 108.55 119.91"/><path class="cls-2" d="M129.14,116.58l29,9.57,7.28-11.78v-.07c0-.07-.07-.21-.07-.28a.42.42,0,0,1-.07-.28v-.55c0-.07.07-.21.07-.28s.07-.21.07-.28.07-.2.14-.27a.53.53,0,0,1,.14-.28c.07-.07.07-.07.07-.14l6-9.84L142.17,91.56Z"/><polygon class="cls-1" points="51.92 49.14 52.41 44.08 40.49 42.49 50.68 61.62 51.92 49.14"/><path class="cls-2" d="M72.51,146.18a2.28,2.28,0,0,1-.55-.9L62,144.93H61.9c-.13,0-.2-.07-.34-.07s-.14-.06-.21-.06a.26.26,0,0,1-.21-.07l-.07-.07a2,2,0,0,1-.55-.49c0-.07-.07-.07-.07-.14s-.07-.07-.14-.14l-.83,1.53a2.2,2.2,0,0,1-1.87,1.11,2.16,2.16,0,0,1-1-.21,2.12,2.12,0,0,1-.83-2.84L58,139.39,46.24,116.24l-6.38-6.45L29,132.46,50.33,153.6l2.56-4.78a2.15,2.15,0,0,1,2.85-.84,2.28,2.28,0,0,1,1,2.78l-3.12,5.89,23.08,22.87L87,159.14Z"/><path class="cls-2" d="M32.59,79.29c0,.07.06.21.06.28v.21a.52.52,0,0,1,.07.35v.34l2.57,5,2.29-4.57a2.08,2.08,0,1,1,3.74,1.8L37.65,90,48,110.55l7.28-13.86-6.31-2.08c-.07,0-.07-.07-.14-.07s-.2-.07-.27-.14a.06.06,0,0,0-.07-.06c-.21-.07-.28-.21-.42-.35s-.07-.14-.14-.21a2.53,2.53,0,0,1-.27-.55c0-.07-.07-.07-.07-.14a2.83,2.83,0,0,1-.07-.76L49.84,69l-1-1.88L43.81,77.42a2,2,0,0,1-1.87,1.18,2.15,2.15,0,0,1-.9-.21,2.08,2.08,0,0,1-1-2.77l6.45-12.89L36.88,44.57,26.56,66.12,32.45,79C32.52,79.09,32.52,79.16,32.59,79.29Z"/><path class="cls-2" d="M110.91,149.3l-1.8-1.52a1.92,1.92,0,0,1-.7-1.25l-30.49-1L90,156.3Z"/><polygon class="cls-2" points="17.55 87.33 6.73 110.48 25.79 129.41 36.67 106.67 17.55 87.33"/><polygon class="cls-2" points="29.54 83.31 21.22 85.12 40.14 104.25 29.54 83.31"/><path d="M179,101.06l-7.27-63a3.08,3.08,0,0,0-2-2.56L71.47.14h-.14A.61.61,0,0,0,71,.07c-.07,0-.21-.07-.28-.07h-.63a.61.61,0,0,0-.34.07c-.07,0-.21.07-.28.07a.36.36,0,0,0-.28.14c-.07,0-.14.07-.27.14a.51.51,0,0,1-.28.13c-.07.07-.14.07-.21.14L68.21.9,68,1.11a1.2,1.2,0,0,0-.2.28c-.07.07-.14.2-.21.27a.07.07,0,0,1-.07.07L53,30.5a3.07,3.07,0,0,0-.34,1.11L52,37.78l-15.45-2h-.9a1,1,0,0,0-.49.13h-.07a2.83,2.83,0,0,0-.48.21h-.07a1.86,1.86,0,0,0-.42.35l-.07.07a2.07,2.07,0,0,0-.35.41V37a2,2,0,0,0-.27.49l-13.1,27a2.9,2.9,0,0,0,0,2.63l4.92,10.61L15.6,79.92a3,3,0,0,0-2.14,1.73L.29,109.79a3.18,3.18,0,0,0,.62,3.54l73.61,72.85a3.36,3.36,0,0,0,2.22.9,3.47,3.47,0,0,0,1.11-.21L148,161.15a3.09,3.09,0,0,0,1.67-1.45l4.92-9.29,3.67.21h.14a3.08,3.08,0,0,0,2.7-1.53L176,123.72a.07.07,0,0,1,.07-.07c.07-.06.07-.2.14-.27s.07-.21.14-.28.07-.21.07-.28.07-.2.07-.27V122a.42.42,0,0,0-.07-.28.39.39,0,0,0-.07-.27c0-.07-.07-.21-.07-.28s-.07-.21-.14-.28a.07.07,0,0,0-.07-.07l-3.88-7,6.59-10.6a.07.07,0,0,1,.07-.07c.07-.07.07-.21.14-.28s.06-.14.06-.28.07-.2.07-.27.07-.21.07-.28v-.28a1.15,1.15,0,0,1-.14-.55Zm-13.37-60.3,1.66,14.14-14.28-5.2A2,2,0,0,0,150.42,51a2,2,0,0,0,1.31,2.56L168,59.4,169.62,74l-27.1-9.92L142.1,50l3.81,1.39a2.49,2.49,0,0,0,.7.14,2.09,2.09,0,0,0,1.94-1.39,2,2,0,0,0-1.25-2.63L142,45.61l-.34-13.52ZM106.4,19.34,137.53,30.5,137.87,44,106.4,32.58Zm0,17.67L138,48.52l.42,14.07-32-11.71Zm0,18.3L138.5,67.1l.48,19L106.4,74.51ZM72.23,7.07l30,10.81V31.05L71.47,19.82Zm-1,17.12,31.06,11.3V49.35L70.43,37.71ZM70.15,42l32.1,11.79V73L69,61.2ZM58.79,32.79l8.73-17.26-.35,6L58.3,37.36ZM56,50l10.61-19L66.2,38.4l-11,19.75ZM54.14,68.55,65.65,47.9,64.82,62,52.62,83.18Zm13.66-3.4,33.47,11.93-3.25,6A2.12,2.12,0,0,0,98.85,86a2.24,2.24,0,0,0,1,.28,2,2,0,0,0,1.8-1.11l3.54-6.59,32.92,11.72L125,115.34,91.43,104.25,98.64,90.8a2.09,2.09,0,0,0-3.67-2l-7.42,13.72c-.07.14-.07.28-.14.35L52.55,91.35Zm34,77L113,120.33,132.12,122l7.62,2.5-10.32,18.57ZM118,146.87l-2.43.84-1.17-1ZM74.73,115.06,62,138.42,50.26,115.06l9-17.12,7.21,2.43Zm-2.36-12.82,42.49,14.07L78.4,113.05Zm6,15,30.22,2.7L97.19,142l-31.75-1.11Zm30.08,29.32a1.92,1.92,0,0,0,.7,1.25l1.8,1.52L90,156.3,77.92,145.56Zm-56-102.45-.49,5.06L50.68,61.62,40.49,42.49Zm-15.53.49,9.64,18.16L40.07,75.62a2.08,2.08,0,0,0,1,2.77,2.15,2.15,0,0,0,.9.21,2,2,0,0,0,1.87-1.18l5.06-10.26,1,1.88L47.49,92.33a2.83,2.83,0,0,0,.07.76c0,.07.07.07.07.14a2.53,2.53,0,0,0,.27.55c.07.07.14.14.14.21s.21.28.42.35a.06.06,0,0,1,.07.06c.07.07.21.07.27.14s.07.07.14.07l6.31,2.08L48,110.55,37.65,90l3.67-7.35a2.08,2.08,0,1,0-3.74-1.8l-2.29,4.57-2.57-5v-.34a.52.52,0,0,0-.07-.35v-.21c0-.07-.06-.21-.06-.28s-.07-.2-.14-.34L26.56,66.12ZM29.54,83.31l10.6,20.94L21.22,85.12ZM6.73,110.49,17.54,87.33l19.13,19.34L25.79,129.41Zm69.94,69L53.59,156.65l3.12-5.89a2.28,2.28,0,0,0-1-2.78,2.15,2.15,0,0,0-2.85.84l-2.56,4.78L29,132.46l10.88-22.67,6.38,6.45L58,139.39l-2.14,4.09a2.12,2.12,0,0,0,.83,2.84,2.16,2.16,0,0,0,1,.21,2.2,2.2,0,0,0,1.87-1.11l.83-1.53c.07.07.07.14.14.14s.07.07.07.14a2,2,0,0,0,.55.49l.07.07a.26.26,0,0,0,.21.07c.07,0,.14.06.21.06s.21.07.34.07H62l9.92.35a2.28,2.28,0,0,0,.55.9l14.49,13Zm30.7-10,1.32-2.5a2.34,2.34,0,0,0-1-2.91,2.1,2.1,0,0,0-2.84.9l-3.47,6.59L81.45,178.9l9.43-18.51,19.89-6.72-2.91,5.61a2.09,2.09,0,0,0,.9,2.84,2.19,2.19,0,0,0,1,.21,2.17,2.17,0,0,0,1.87-1.11l5-9.42,10.75-3.61a2,2,0,0,0,1.11-.9l2.21.07,4,.14-8,15Zm37.23-13.72-12.2,4.43,6.79-12.61,9.56.34Zm12.19-11.72-22.73-.83,9.7-17.4,14.7,4.85a2,2,0,0,0,.62.14,2.14,2.14,0,0,0,1.8-1l3.75-6,4,.21Zm10.26-24.33.63-1,.62,1.11Zm-1.24-7.83c0,.07,0,.07-.07.14a.53.53,0,0,0-.14.28c-.07.07-.07.2-.14.27s-.07.21-.07.28-.07.21-.07.28v.55a.42.42,0,0,0,.07.28c0,.07.07.21.07.28v.07l-7.28,11.78-29-9.57,13-25,29.67,10.54Zm-22.6-24.33-.49-19,27.52,10.12L172.46,98Z"/><path d="M300.59,118.27H282V50.48h18.57V75.93c3.25-2.88,7.89-4.18,12.63-4.18,12.53,0,20.89,10.3,20.89,23.58s-8.36,23.86-20.89,23.86c-4.83,0-9.57-1.67-12.63-5Zm6.87-31a8.18,8.18,0,0,0,0,16.35c4.83,0,8.08-3.35,8.08-8.18A7.78,7.78,0,0,0,307.46,87.25Z"/><path d="M364.19,72.77h18.57v27c0,12.81-10.49,20-23.68,20s-23.67-7.24-23.67-20v-27H354V98.12c0,3.34,1.76,5.38,5.1,5.38s5.11-2,5.11-5.38Z"/><path d="M405,71.75c5.48,0,10.12,1.85,12.63,4.18V50.48h18.57v67.79H417.67v-4.09c-3.07,3.34-7.8,5-12.63,5-12.53,0-20.89-10.58-20.89-23.86S392.51,71.75,405,71.75Zm5.76,15.5a7.78,7.78,0,0,0-8.08,8.17c0,4.83,3.25,8.18,8.08,8.18a8.18,8.18,0,0,0,0-16.35Z"/><path d="M459.08,71.75c5.47,0,10.12,1.85,12.62,4.18V50.48h18.57v67.79H471.7v-4.09c-3.06,3.34-7.8,5-12.62,5-12.54,0-20.9-10.58-20.9-23.86S446.54,71.75,459.08,71.75Zm5.75,15.5a7.78,7.78,0,0,0-8.08,8.17c0,4.83,3.25,8.18,8.08,8.18a8.18,8.18,0,0,0,0-16.35Z"/><path d="M548.44,72.77l-25.53,64.07H504.34l7.15-18.67-19.78-45.4H511.4l8.91,22.38L529,72.77Z"/><path d="M224.65,50.24H207.1a3.29,3.29,0,0,0-2.44,1,3.19,3.19,0,0,0-.93,2.4V97.37a20.9,20.9,0,1,0,41.79,0V53.62a3.33,3.33,0,0,0-3.37-3.38,3.35,3.35,0,0,0-3.38,3.38V97.37a14.15,14.15,0,0,1-28.29,0V57h10.75V97.37a3.11,3.11,0,0,0,1,2.34,3.24,3.24,0,0,0,2.41,1,3.18,3.18,0,0,0,2.35-1,3.26,3.26,0,0,0,1-2.4V53.62a3.18,3.18,0,0,0-1-2.43A3.24,3.24,0,0,0,224.65,50.24Z"/><path d="M255.12,118.24h17.46a3.35,3.35,0,0,0,3.38-3.37V53.62a3.24,3.24,0,0,0-.95-2.37,3.2,3.2,0,0,0-2.43-1H255.12a3.49,3.49,0,0,0-3.37,3.38A3.33,3.33,0,0,0,255.12,57h14.09v54.5H258.5V71.12a3.49,3.49,0,0,0-3.38-3.38,3.33,3.33,0,0,0-3.37,3.38v43.75a3.25,3.25,0,0,0,.94,2.36A3.22,3.22,0,0,0,255.12,118.24Z"/></g></g></svg>